<svg width="217" height="232" viewBox="0 0 217 232" fill="none" xmlns="http://www.w3.org/2000/svg">
  <path fill-rule="evenodd" clip-rule="evenodd"
    d="M0.992337 82.9112C1.57935 79.8571 2.41924 76.7577 3.55714 73.5949C9.74338 56.4124 22.2875 42.003 36.3126 30.249C62.1594 8.58961 96.5765 -5.68383 127.986 2.19148C142.798 5.9071 152.281 13.4743 159.748 26.778C165.014 36.1668 170.36 46.5071 180.104 50.9205C186.435 53.7934 193.868 53.739 200.207 56.5937C213.095 62.4027 218.017 79.1049 215.227 93.5324C209.889 121.155 186.02 149.239 162.702 163.794C114.197 194.054 59.1972 174.37 27.2094 145.433C9.12927 129.066 -3.75797 107.797 0.992337 82.9112Z"
    fill="#CFDFF7" />
  <path d="M85.4772 85.0135C80.3756 86.0466 75.2632 87.0797 70.1606 88.1038" stroke="#959595" />
  <path fill-rule="evenodd" clip-rule="evenodd"
    d="M56.4007 86.6224C57.6588 79.1241 61.1538 72.1043 67.0456 67.0157C67.759 66.3995 69.6104 49.4617 72.1752 49.4617C72.7974 49.4617 73.6743 50.1232 74.6678 51.1101L76.3286 52.9507C79.0478 56.1588 81.9829 60.3992 82.7144 60.1826C90.5262 57.9251 93.2174 56.5938 103.349 56.5938C113.483 56.5938 118.342 58.3067 121.132 58.3067C122.468 58.3067 129.305 49.4617 131.047 49.4617C132.212 49.4617 133.505 54.2104 134.932 63.6988C135.897 64.4148 136.8 65.157 137.65 65.9192L140.187 68.4748C148.9 78.3148 149.309 94.0591 144.368 105.821C143.376 108.186 161.22 126.42 161.22 145.778C161.22 165.135 158.15 176.554 143.737 180.949C129.323 185.345 79.6791 186.106 51.9999 180.949C38.9501 178.521 18.3766 176.952 12.3981 166.793C5.24549 154.659 6.36624 151.288 8.08213 144.754C9.79712 138.22 17.4654 138.22 17.4654 144.754C17.4654 151.288 16.0746 149.756 20.0934 156.154C24.1122 162.553 30.2533 164.175 35.5996 165.28C40.946 166.395 46.2562 166.875 46.2562 163.884C46.2562 160.894 44.4943 141.871 48.6756 126.701C52.8479 111.533 59.4487 109.854 58.6829 107.924C56.0178 101.21 55.2132 93.703 56.4007 86.6224Z"
    fill="white" />
  <path fill-rule="evenodd" clip-rule="evenodd"
    d="M56.4007 86.6224C57.6588 79.1241 61.1538 72.1043 67.0456 67.0157C67.759 66.3995 69.6104 49.4617 72.1752 49.4617C72.7974 49.4617 73.6743 50.1232 74.6678 51.1101L76.3286 52.9507C79.0478 56.1588 81.9829 60.3992 82.7144 60.1826C90.5262 57.9251 93.2174 56.5938 103.349 56.5938C113.483 56.5938 118.342 58.3067 121.132 58.3067C122.468 58.3067 129.305 49.4617 131.047 49.4617C132.212 49.4617 133.505 54.2104 134.932 63.6988C135.897 64.4148 136.8 65.157 137.65 65.9192L140.187 68.4748C148.9 78.3148 149.309 94.0591 144.368 105.821C143.376 108.186 161.22 126.42 161.22 145.778C161.22 165.135 158.15 176.554 143.737 180.949C129.323 185.345 79.6791 186.106 51.9999 180.949C38.9501 178.521 18.3766 176.952 12.3981 166.793C5.24549 154.659 6.36624 151.288 8.08213 144.754C9.79712 138.22 17.4654 138.22 17.4654 144.754C17.4654 151.288 16.0746 149.756 20.0934 156.154C24.1122 162.553 30.2533 164.175 35.5996 165.28C40.946 166.395 46.2562 166.875 46.2562 163.884C46.2562 160.894 44.4943 141.871 48.6756 126.701C52.8479 111.533 59.4487 109.854 58.6829 107.924C56.0178 101.21 55.2132 93.703 56.4007 86.6224Z"
    stroke="black" stroke-width="1.5" stroke-linecap="round" stroke-linejoin="round" stroke-dasharray="200 4" />
  <mask id="mask0" mask-type="alpha" maskUnits="userSpaceOnUse" x="4" y="109" width="213" height="119">
    <path fill-rule="evenodd" clip-rule="evenodd" d="M4.4649 227.146H216.501V109.151L4.4649 136.8V227.146Z"
      fill="white" />
  </mask>
  <g mask="url(#mask0)">
    <path fill-rule="evenodd" clip-rule="evenodd" d="M-21.3926 243.085H221.721V103.913H-21.3926V243.085Z"
      fill="#FAFAFA" />
  </g>
  <path d="M10.9714 136.851L214.72 110.189" stroke="black" stroke-width="1.5" stroke-linecap="round"
    stroke-linejoin="round" stroke-dasharray="200 0 0 4" />
  <path fill-rule="evenodd" clip-rule="evenodd"
    d="M141.542 171.262C147.043 171.987 152.216 174.65 157.88 173.337C161.329 172.539 164.327 170.41 167.723 169.386C172.473 167.945 177.685 168.788 182.264 170.717C186.255 172.404 189.416 175.159 193.146 177.243C195.62 178.629 198.419 179.318 201.065 180.423C206.664 182.761 211.198 186.043 212.318 192.395C212.942 195.93 212.246 199.845 209.817 202.472C205.725 206.914 198.744 206.296 192.82 207.42C186.039 208.707 180.764 212.315 176.763 217.887C174.162 221.503 171.77 225.436 168.093 227.948C164.545 230.367 160.137 231.201 155.847 231.301C149.778 231.436 143.086 229.941 138.525 225.673C133.659 221.105 133.071 213.773 128.293 209.179C121.827 202.97 112.083 206.251 108.146 196.609C106.763 193.219 106.8 189.278 108.254 185.916C113.33 174.161 130.063 169.748 141.542 171.262Z"
    fill="#87AFE9" />
  <path fill-rule="evenodd" clip-rule="evenodd"
    d="M141.542 171.262C147.043 171.987 152.216 174.65 157.88 173.337C161.329 172.539 164.327 170.41 167.723 169.386C172.473 167.945 177.685 168.788 182.264 170.717C186.255 172.404 189.416 175.159 193.146 177.243C195.62 178.629 198.419 179.318 201.065 180.423C206.664 182.761 211.198 186.043 212.318 192.395C212.942 195.93 212.246 199.845 209.817 202.472C205.725 206.914 198.744 206.296 192.82 207.42C186.039 208.707 180.764 212.315 176.763 217.887C174.162 221.503 171.77 225.436 168.093 227.948C164.545 230.367 160.137 231.201 155.847 231.301C149.778 231.436 143.086 229.941 138.525 225.673C133.659 221.105 133.071 213.773 128.293 209.179C121.827 202.97 112.083 206.251 108.146 196.609C106.763 193.219 106.8 189.278 108.254 185.916C113.33 174.161 130.063 169.748 141.542 171.262Z"
    fill="#87AFE9" />
  <mask id="mask1" mask-type="alpha" maskUnits="userSpaceOnUse" x="107" y="168" width="106" height="64">
    <path fill-rule="evenodd" clip-rule="evenodd"
      d="M167.723 169.385C164.327 170.41 161.329 172.539 157.88 173.338C152.217 174.651 147.042 171.986 141.542 171.261C130.063 169.749 113.329 174.161 108.254 185.916C106.8 189.278 106.764 193.22 108.145 196.609C112.082 206.251 121.827 202.971 128.294 209.179C133.071 213.773 133.658 221.105 138.526 225.673C143.086 229.942 149.778 231.436 155.846 231.3C160.136 231.201 164.544 230.368 168.093 227.947C171.769 225.437 174.162 221.504 176.763 217.888C180.764 212.315 186.038 208.708 192.82 207.421C198.744 206.297 205.725 206.913 209.816 202.473C212.246 199.845 212.942 195.93 212.318 192.395C211.198 186.042 206.665 182.762 201.065 180.424C198.419 179.318 195.62 178.629 193.145 177.243C189.415 175.158 186.255 172.403 182.264 170.718C179.274 169.457 176.014 168.66 172.789 168.66C171.075 168.66 169.371 168.885 167.723 169.385Z"
      fill="white" />
  </mask>
  <g mask="url(#mask1)">
    <path fill-rule="evenodd" clip-rule="evenodd" d="M-130.932 520.15H353.211V-55.7271H-130.932V520.15Z"
      fill="#87AFE9" />
    <path fill-rule="evenodd" clip-rule="evenodd" d="M-130.932 520.15H353.211V-55.7271H-130.932V520.15Z"
      fill="#87AFE9" />
  </g>
  <mask id="mask2" mask-type="alpha" maskUnits="userSpaceOnUse" x="107" y="168" width="106" height="64">
    <path fill-rule="evenodd" clip-rule="evenodd"
      d="M167.723 169.385C164.327 170.41 161.329 172.539 157.88 173.338C152.217 174.651 147.042 171.986 141.542 171.261C130.063 169.749 113.329 174.161 108.254 185.916C106.8 189.278 106.764 193.22 108.145 196.609C112.082 206.251 121.827 202.971 128.294 209.179C133.071 213.773 133.658 221.105 138.526 225.673C143.086 229.942 149.778 231.436 155.846 231.3C160.136 231.201 164.544 230.368 168.093 227.947C171.769 225.437 174.162 221.504 176.763 217.888C180.764 212.315 186.038 208.708 192.82 207.421C198.744 206.297 205.725 206.913 209.816 202.473C212.246 199.845 212.942 195.93 212.318 192.395C211.198 186.042 206.665 182.762 201.065 180.424C198.419 179.318 195.62 178.629 193.145 177.243C189.415 175.158 186.255 172.403 182.264 170.718C179.274 169.456 176.014 168.66 172.789 168.66C171.075 168.66 169.371 168.885 167.723 169.385Z"
      fill="white" />
  </mask>
  <g mask="url(#mask2)">
    <path fill-rule="evenodd" clip-rule="evenodd" d="M101.815 236.484H217.728V163.268H101.815V236.484Z"
      fill="#87AFE9" />
  </g>
  <path
    d="M152.018 178.919C147.148 178.232 122.676 174.78 115.31 173.736C112.022 173.272 109.128 172.865 107.085 169.969C105.677 167.971 104.903 165.553 104.495 163.16C103.534 157.522 104.425 151.429 107.116 146.378C108.947 142.944 111.982 138.887 116.355 139.208L156.778 144.908V144.916"
    stroke="black" stroke-width="1.5" stroke-linecap="round" stroke-linejoin="round" />
  <path fill-rule="evenodd" clip-rule="evenodd"
    d="M159.847 174.223C157.616 177.385 154.266 180.146 150.333 178.378C148.252 177.443 146.891 175.276 146.052 173.238C144.426 169.285 144.25 164.758 144.839 160.568C146.157 151.179 151.494 144.164 156.769 144.908C161.178 145.529 163.162 150.723 163.845 154.531C164.842 160.094 164.091 166.192 161.596 171.267C161.133 172.207 160.544 173.234 159.847 174.223Z"
    stroke="black" stroke-width="1.5" stroke-linecap="round" stroke-linejoin="round" stroke-dasharray="43.1 4.31" />
  <path
    d="M131.265 95.834C135.997 95.4806 139.556 95.3446 141.948 95.4171C144.342 95.4896 147.755 95.8521 152.171 96.4956"
    stroke="black" stroke-width="1.5" stroke-linecap="round" />
  <path
    d="M130.858 99.7219C135.518 99.8035 139.167 99.9847 141.823 100.266C144.198 100.519 147.34 101.009 151.269 101.752"
    stroke="black" stroke-width="1.5" stroke-linecap="round" />
  <path
    d="M69.8625 96.3327C65.7805 96.2059 62.6476 96.2059 60.4712 96.3327C58.2938 96.4596 55.169 96.8402 51.078 97.4655"
    stroke="black" stroke-width="1.5" stroke-linecap="round" />
  <path
    d="M69.8625 100.764C65.8807 101.199 62.746 101.643 60.4711 102.087C58.4112 102.495 55.6486 103.193 52.1897 104.172"
    stroke="black" stroke-width="1.5" stroke-linecap="round" />
  <path fill-rule="evenodd" clip-rule="evenodd"
    d="M82.073 103.265C82.8226 102.423 83.536 101.77 84.2043 101.299C87.8528 98.7433 91.9439 95.1908 89.5046 90.9676C88.0064 88.3758 85.0171 86.4183 81.3415 87.0798C79.0386 87.4967 76.1757 89.3908 74.1709 91.4117C70.703 94.9098 67.9756 98.6979 65.9888 102.776"
    fill="white" />
  <path
    d="M82.073 103.265C82.8226 102.423 83.536 101.77 84.2043 101.299C87.8528 98.7433 91.9439 95.1908 89.5046 90.9676C88.0064 88.3758 85.0171 86.4183 81.3415 87.0798C79.0386 87.4967 76.1757 89.3908 74.1709 91.4117C70.703 94.9098 67.9756 98.6979 65.9888 102.776"
    stroke="black" stroke-width="1.5" stroke-linecap="round" stroke-linejoin="round" />
  <path fill-rule="evenodd" clip-rule="evenodd"
    d="M75.2997 113.778C76.8711 110.814 78.3431 108.34 79.6978 106.356L75.2997 113.778Z" fill="white" />
  <path d="M75.2997 113.778C76.8711 110.814 78.3431 108.34 79.6978 106.356" stroke="black" stroke-width="1.5"
    stroke-linecap="round" stroke-linejoin="round" />
  <path
    d="M82.0641 91.8648C82.6782 91.1761 83.2914 90.6233 83.9154 90.1973C84.5377 89.7714 85.6133 89.3273 87.1395 88.8561"
    stroke="black" stroke-width="1.5" stroke-linecap="round" stroke-linejoin="round" />
  <path
    d="M84.5926 95.0004C85.3331 94.0579 85.9472 93.4144 86.4169 93.061C86.8865 92.7166 87.6902 92.3179 88.8372 91.8647"
    stroke="black" stroke-width="1.5" stroke-linecap="round" stroke-linejoin="round" />
  <path fill-rule="evenodd" clip-rule="evenodd"
    d="M124.564 106.401C122.604 103.374 120.853 101.326 119.326 100.248C115.677 97.692 111.586 94.1395 114.024 89.9164C115.524 87.3245 118.513 85.367 122.189 86.0286C124.491 86.4454 127.354 88.3395 129.36 90.3604C132.827 93.8586 135.554 97.6467 137.541 101.725"
    fill="white" />
  <path
    d="M124.564 106.401C122.604 103.374 120.853 101.326 119.326 100.248C115.677 97.692 111.586 94.1395 114.024 89.9164C115.524 87.3245 118.513 85.367 122.189 86.0286C124.491 86.4454 127.354 88.3395 129.36 90.3604C132.827 93.8586 135.554 97.6467 137.541 101.725"
    stroke="black" stroke-width="1.5" stroke-linecap="round" stroke-linejoin="round" />
  <path fill-rule="evenodd" clip-rule="evenodd"
    d="M128.231 112.726C127.68 111.693 127.147 110.714 126.623 109.8L128.231 112.726Z" fill="white" />
  <path d="M128.231 112.726C127.68 111.693 127.147 110.714 126.623 109.8" stroke="black" stroke-width="1.5"
    stroke-linecap="round" stroke-linejoin="round" />
  <path
    d="M121.466 90.8227C120.852 90.134 120.238 89.5812 119.615 89.1552C118.992 88.7293 117.916 88.2852 116.391 87.814"
    stroke="black" stroke-width="1.5" stroke-linecap="round" stroke-linejoin="round" />
  <path
    d="M118.938 93.9583C118.197 93.0158 117.583 92.3723 117.113 92.0189C116.644 91.6745 115.839 91.2758 114.693 90.8226"
    stroke="black" stroke-width="1.5" stroke-linecap="round" stroke-linejoin="round" />
  <path fill-rule="evenodd" clip-rule="evenodd" d="M99.0334 96.9668L101.968 99.3231L102.482 104.19" fill="white" />
  <path d="M99.0334 96.9668L101.968 99.3231L102.482 104.19" stroke="black" stroke-width="1.5" stroke-linecap="round"
    stroke-linejoin="round" />
  <path d="M105.49 96.3779L103.929 97.8007" stroke="black" stroke-width="1.5" stroke-linecap="round"
    stroke-linejoin="round" />
</svg>
